<svg width="1500" height="500" xmlns="http://www.w3.org/2000/svg" clip-rule="evenodd" xml:space="preserve" version="1.1">

 <g>
  <title>Layer 1</title>
  <g id="svg_1" transform="matrix(1 0 0 1 0 -600)">
   <g transform="matrix(1.12867 0 0 1.5528 14.6727 -266.46)" id="Artboard2">
    <rect id="svg_2" fill="none" height="322" width="1329" y="558.64247" x="-12.73855"/>
    <g id="svg_3" transform="matrix(1.10331 0 0 0.801957 -77.8207 452.83)">
     <g id="svg_4">
      <g id="svg_5" transform="matrix(0.105626 0.515917 -0.515917 0.105626 332.516 -86.4105)">
       <path id="svg_6" fill="rgb(255,129,22)" d="m428.4536,215.84728c-2.925,14.206 -4.463,28.934 -4.463,44.017c0,120.091 97.499,217.59 217.59,217.59c120.091,0 217.59,-97.499 217.59,-217.59c0,-15.083 -1.538,-29.811 -4.463,-44.017c27.846,41.106 44.116,90.677 44.116,144.017c0,141.976 -115.267,257.243 -257.243,257.243c-141.976,0 -257.243,-115.267 -257.243,-257.243c0,-53.34 16.27,-102.911 44.116,-144.017z"/>
      </g>
      <g id="svg_7" transform="matrix(1.35951 0 0 1.30023 -267.607 0.390688)">
       <g id="svg_8" transform="matrix(191.246 0 0 199.965 428.022 278.612)">
        <path id="svg_9" fill-rule="nonzero" fill="rgb(255,129,22)" d="m0.19591,-0.69692c0.015,0 0.022,0.007 0.022,0.022l0,0.399c0,0.027 0.002,0.049 0.007,0.066c0.004,0.018 0.011,0.032 0.021,0.042c0.01,0.011 0.024,0.018 0.041,0.022c0.017,0.005 0.038,0.007 0.064,0.007l0.405,0c0.015,0 0.022,0.007 0.022,0.022l0,0.098c0,0.015 -0.007,0.022 -0.022,0.022l-0.411,0c-0.051,0 -0.094,-0.005 -0.129,-0.014c-0.035,-0.009 -0.064,-0.025 -0.086,-0.046c-0.023,-0.021 -0.039,-0.048 -0.049,-0.082c-0.011,-0.033 -0.016,-0.074 -0.016,-0.122l0,-0.414c0,-0.015 0.008,-0.022 0.023,-0.022l0.108,0z"/>
       </g>
       <g id="svg_10" transform="matrix(191.246 0 0 199.965 578.532 278.612)">
        <path id="svg_11" fill-rule="nonzero" fill="rgb(255,129,22)" d="m0.19591,-0.69692c0.015,0 0.022,0.007 0.022,0.022l0,0.399c0,0.027 0.002,0.049 0.007,0.066c0.004,0.018 0.011,0.032 0.021,0.042c0.01,0.011 0.024,0.018 0.041,0.022c0.017,0.005 0.038,0.007 0.064,0.007l0.277,0c0.026,0 0.048,-0.002 0.065,-0.007c0.016,-0.004 0.03,-0.011 0.04,-0.022c0.01,-0.01 0.017,-0.024 0.021,-0.042c0.004,-0.017 0.006,-0.039 0.006,-0.066l0,-0.399c0,-0.015 0.007,-0.022 0.022,-0.022l0.109,0c0.015,0 0.022,0.007 0.022,0.022l0,0.414c0,0.048 -0.005,0.089 -0.015,0.122c-0.01,0.034 -0.026,0.061 -0.048,0.082c-0.023,0.021 -0.052,0.037 -0.087,0.046c-0.036,0.009 -0.079,0.014 -0.13,0.014l-0.288,0c-0.051,0 -0.094,-0.005 -0.129,-0.014c-0.035,-0.009 -0.064,-0.025 -0.086,-0.046c-0.023,-0.021 -0.039,-0.048 -0.049,-0.082c-0.011,-0.033 -0.016,-0.074 -0.016,-0.122l0,-0.414c0,-0.015 0.008,-0.022 0.023,-0.022l0.108,0z"/>
       </g>
       <g id="svg_12" transform="matrix(191.246 0 0 199.965 757.73 278.612)">
        <path id="svg_13" fill-rule="nonzero" fill="rgb(255,129,22)" d="m0.51091,-0.69692c0.025,0 0.047,0.005 0.064,0.015c0.017,0.011 0.034,0.031 0.051,0.061l0.331,0.601c0.003,0.007 0.004,0.012 0.003,0.016c-0.002,0.005 -0.007,0.007 -0.015,0.007l-0.127,0c-0.011,0 -0.019,-0.004 -0.023,-0.013l-0.071,-0.129l-0.47,0l-0.069,0.129c-0.005,0.009 -0.012,0.013 -0.023,0.013l-0.13,0c-0.009,0 -0.014,-0.002 -0.015,-0.007c-0.002,-0.004 -0.001,-0.009 0.002,-0.016l0.328,-0.601c0.017,-0.03 0.033,-0.05 0.049,-0.061c0.016,-0.01 0.035,-0.015 0.056,-0.015l0.059,0zm-0.194,0.442l0.344,0l-0.159,-0.293c-0.003,-0.005 -0.006,-0.007 -0.011,-0.007l-0.006,0c-0.005,0 -0.008,0.002 -0.011,0.007l-0.157,0.293z"/>
       </g>
       <g id="svg_14" transform="matrix(191.246 0 0 199.965 944.195 278.612)">
        <path id="svg_15" fill-rule="nonzero" fill="rgb(255,129,22)" d="m0.63391,-0.69692c0.077,0 0.132,0.017 0.165,0.052c0.033,0.035 0.05,0.086 0.05,0.154l0,0.057c0,0.057 -0.012,0.103 -0.035,0.136c-0.023,0.033 -0.061,0.055 -0.114,0.064l0.171,0.212c0.003,0.003 0.004,0.008 0.003,0.015c-0.001,0.007 -0.007,0.01 -0.016,0.01l-0.129,0c-0.009,0 -0.015,-0.001 -0.018,-0.003c-0.003,-0.002 -0.007,-0.005 -0.01,-0.01l-0.158,-0.208l-0.323,0l0,0.199c0,0.015 -0.007,0.022 -0.022,0.022l-0.108,0c-0.015,0 -0.023,-0.007 -0.023,-0.022l0,-0.648c0,-0.02 0.01,-0.03 0.03,-0.03l0.537,0zm-0.414,0.357l0.383,0c0.034,0 0.058,-0.007 0.072,-0.022c0.014,-0.015 0.021,-0.037 0.021,-0.067l0,-0.042c0,-0.03 -0.007,-0.052 -0.021,-0.067c-0.014,-0.015 -0.038,-0.022 -0.072,-0.022l-0.37,0c-0.009,0 -0.013,0.004 -0.013,0.012l0,0.208z"/>
       </g>
      </g>
     </g>
    </g>
    <g id="svg_16" transform="matrix(1.17863 0 0 0.790268 -96.3105 400.979)">
     <g id="svg_17" transform="matrix(59.0372 0 0 64 86.9983 587)">
      <path id="svg_18" fill-rule="nonzero" fill="rgb(90,90,90)" d="m0.62576,-0.2243c-0.003,0.036 -0.011,0.07 -0.025,0.1c-0.014,0.03 -0.032,0.056 -0.056,0.078c-0.025,0.021 -0.054,0.038 -0.088,0.05c-0.034,0.013 -0.074,0.019 -0.118,0.019c-0.045,0 -0.086,-0.008 -0.122,-0.024c-0.037,-0.016 -0.067,-0.038 -0.093,-0.068c-0.025,-0.03 -0.044,-0.066 -0.058,-0.108c-0.013,-0.042 -0.02,-0.089 -0.02,-0.142l0,-0.046c0,-0.053 0.007,-0.1 0.021,-0.143c0.014,-0.042 0.034,-0.078 0.059,-0.107c0.026,-0.03 0.057,-0.053 0.093,-0.069c0.037,-0.016 0.077,-0.024 0.122,-0.024c0.045,0 0.084,0.007 0.118,0.019c0.034,0.013 0.063,0.03 0.087,0.052c0.023,0.023 0.042,0.049 0.055,0.08c0.014,0.031 0.022,0.064 0.026,0.1l-0.147,0c-0.002,-0.021 -0.005,-0.04 -0.011,-0.056c-0.006,-0.016 -0.014,-0.03 -0.025,-0.041c-0.01,-0.011 -0.024,-0.019 -0.041,-0.025c-0.017,-0.006 -0.038,-0.009 -0.062,-0.009c-0.049,0 -0.086,0.018 -0.11,0.054c-0.024,0.036 -0.037,0.092 -0.037,0.168l0,0.047c0,0.037 0.003,0.069 0.008,0.097c0.006,0.028 0.014,0.051 0.026,0.069c0.011,0.019 0.026,0.033 0.045,0.042c0.018,0.009 0.04,0.014 0.066,0.014c0.024,0 0.043,-0.002 0.06,-0.008c0.017,-0.005 0.031,-0.013 0.042,-0.023c0.011,-0.011 0.02,-0.024 0.026,-0.04c0.007,-0.016 0.01,-0.035 0.012,-0.056l0.147,0z"/>
     </g>
     <g id="svg_19" transform="matrix(59.0372 0 0 64 125.626 587)">
      <path id="svg_20" fill-rule="nonzero" fill="rgb(90,90,90)" d="m0.25876,-0.6983l0.183,0.516l0.181,-0.516l0.193,0l0,0.711l-0.147,0l0,-0.194l0.014,-0.336l-0.192,0.53l-0.1,0l-0.192,-0.529l0.015,0.335l0,0.194l-0.147,0l0,-0.711l0.192,0z"/>
     </g>
     <g id="svg_21" transform="matrix(59.0372 0 0 64 177.341 587)">
      <path id="svg_22" fill-rule="nonzero" fill="rgb(90,90,90)" d="m0.43576,-0.1743c0,-0.012 -0.002,-0.023 -0.005,-0.033c-0.004,-0.01 -0.011,-0.019 -0.021,-0.028c-0.01,-0.008 -0.024,-0.016 -0.042,-0.024c-0.019,-0.009 -0.042,-0.017 -0.071,-0.026c-0.032,-0.011 -0.063,-0.022 -0.092,-0.035c-0.028,-0.014 -0.054,-0.029 -0.075,-0.047c-0.022,-0.017 -0.039,-0.038 -0.052,-0.061c-0.012,-0.023 -0.018,-0.05 -0.018,-0.081c0,-0.03 0.006,-0.057 0.019,-0.081c0.013,-0.025 0.031,-0.046 0.054,-0.063c0.023,-0.017 0.051,-0.031 0.083,-0.04c0.032,-0.01 0.067,-0.015 0.106,-0.015c0.039,0 0.075,0.006 0.107,0.017c0.033,0.011 0.06,0.026 0.083,0.045c0.023,0.02 0.04,0.043 0.053,0.07c0.012,0.027 0.018,0.056 0.018,0.088l-0.146,0c0,-0.015 -0.003,-0.029 -0.007,-0.041c-0.005,-0.013 -0.012,-0.024 -0.022,-0.033c-0.01,-0.009 -0.022,-0.016 -0.037,-0.021c-0.014,-0.005 -0.032,-0.008 -0.052,-0.008c-0.019,0 -0.035,0.002 -0.05,0.006c-0.014,0.005 -0.025,0.01 -0.035,0.018c-0.009,0.007 -0.016,0.016 -0.021,0.026c-0.004,0.01 -0.007,0.021 -0.007,0.033c0,0.023 0.012,0.043 0.036,0.058c0.024,0.016 0.059,0.031 0.105,0.045c0.039,0.012 0.073,0.025 0.103,0.04c0.029,0.014 0.054,0.031 0.073,0.049c0.02,0.019 0.035,0.04 0.045,0.063c0.01,0.023 0.015,0.049 0.015,0.078c0,0.032 -0.006,0.06 -0.018,0.084c-0.012,0.024 -0.03,0.045 -0.052,0.062c-0.023,0.017 -0.05,0.029 -0.082,0.038c-0.031,0.009 -0.067,0.014 -0.106,0.014c-0.023,0 -0.047,-0.002 -0.07,-0.006c-0.023,-0.004 -0.046,-0.011 -0.067,-0.019c-0.021,-0.009 -0.041,-0.019 -0.059,-0.032c-0.019,-0.013 -0.035,-0.028 -0.048,-0.045c-0.014,-0.017 -0.024,-0.037 -0.032,-0.059c-0.007,-0.022 -0.011,-0.046 -0.011,-0.073l0.147,0c0,0.022 0.003,0.04 0.01,0.055c0.007,0.015 0.016,0.027 0.028,0.036c0.013,0.01 0.027,0.016 0.045,0.021c0.017,0.004 0.036,0.006 0.057,0.006c0.019,0 0.036,-0.002 0.05,-0.006c0.014,-0.004 0.025,-0.01 0.034,-0.017c0.009,-0.007 0.016,-0.016 0.021,-0.026c0.004,-0.009 0.006,-0.02 0.006,-0.032z"/>
     </g>
     <g id="svg_23" transform="matrix(59.0372 0 0 64 228.336 587)">
      <path id="svg_24" fill-rule="nonzero" fill="rgb(90,90,90)" d="m0.09676,0.0127l0,-0.425l-0.079,0l0,-0.103l0.079,0l0,-0.046c0,-0.03 0.004,-0.057 0.013,-0.08c0.009,-0.023 0.022,-0.042 0.039,-0.058c0.017,-0.016 0.037,-0.028 0.061,-0.036c0.024,-0.008 0.051,-0.012 0.081,-0.012c0.012,0 0.025,0.001 0.036,0.003c0.012,0.002 0.024,0.004 0.035,0.007l-0.001,0.109c-0.012,-0.003 -0.026,-0.005 -0.043,-0.005c-0.025,0 -0.045,0.007 -0.059,0.019c-0.014,0.012 -0.021,0.03 -0.021,0.053l0,0.046l0.105,0l0,0.103l-0.105,0l0,0.425l-0.141,0z"/>
     </g>
     <g id="svg_25" transform="matrix(59.0372 0 0 64 249.495 587)">
      <path id="svg_26" fill-rule="nonzero" fill="rgb(90,90,90)" d="m0.03576,-0.2563c0,-0.038 0.006,-0.074 0.017,-0.107c0.011,-0.033 0.027,-0.061 0.048,-0.085c0.021,-0.024 0.047,-0.043 0.079,-0.057c0.031,-0.013 0.066,-0.02 0.106,-0.02c0.04,0 0.075,0.007 0.107,0.02c0.031,0.014 0.057,0.033 0.079,0.057c0.021,0.024 0.037,0.052 0.048,0.085c0.011,0.033 0.017,0.069 0.017,0.107l0,0.01c0,0.039 -0.006,0.075 -0.017,0.107c-0.011,0.033 -0.027,0.061 -0.048,0.085c-0.022,0.024 -0.048,0.043 -0.079,0.057c-0.031,0.013 -0.066,0.02 -0.106,0.02c-0.04,0 -0.076,-0.007 -0.107,-0.02c-0.031,-0.014 -0.057,-0.033 -0.079,-0.057c-0.021,-0.024 -0.037,-0.052 -0.048,-0.085c-0.011,-0.032 -0.017,-0.068 -0.017,-0.107l0,-0.01zm0.141,0.01c0,0.022 0.002,0.042 0.006,0.061c0.004,0.019 0.01,0.035 0.019,0.049c0.009,0.014 0.02,0.025 0.034,0.033c0.014,0.008 0.031,0.012 0.051,0.012c0.019,0 0.036,-0.004 0.05,-0.012c0.014,-0.008 0.025,-0.019 0.034,-0.033c0.008,-0.014 0.015,-0.03 0.019,-0.049c0.004,-0.019 0.006,-0.039 0.006,-0.061l0,-0.01c0,-0.021 -0.002,-0.041 -0.006,-0.059c-0.004,-0.019 -0.011,-0.036 -0.019,-0.05c-0.009,-0.014 -0.02,-0.025 -0.034,-0.033c-0.014,-0.009 -0.031,-0.013 -0.051,-0.013c-0.02,0 -0.036,0.004 -0.05,0.013c-0.014,0.008 -0.025,0.019 -0.034,0.033c-0.009,0.014 -0.015,0.031 -0.019,0.05c-0.004,0.018 -0.006,0.038 -0.006,0.059l0,0.01z"/>
     </g>
     <g id="svg_27" transform="matrix(59.0372 0 0 64 282.876 587)">
      <path id="svg_28" fill-rule="nonzero" fill="rgb(90,90,90)" d="m0.35476,-0.3833c-0.007,-0.001 -0.015,-0.002 -0.025,-0.003c-0.01,0 -0.018,-0.001 -0.026,-0.001c-0.027,0 -0.05,0.005 -0.067,0.014c-0.017,0.009 -0.03,0.023 -0.038,0.04l0,0.346l-0.141,0l0,-0.528l0.134,0l0.003,0.063c0.014,-0.023 0.03,-0.041 0.05,-0.054c0.019,-0.013 0.042,-0.019 0.068,-0.019c0.008,0 0.015,0.001 0.024,0.002c0.008,0.001 0.015,0.003 0.02,0.004l-0.002,0.136z"/>
     </g>
     <g id="svg_29" transform="matrix(59.0372 0 0 64 319.111 587)">
      <path id="svg_30" fill-rule="nonzero" fill="rgb(90,90,90)" d="m0.33076,-0.2473l-0.117,0l0,0.26l-0.147,0l0,-0.711l0.265,0c0.041,0 0.077,0.005 0.11,0.014c0.033,0.009 0.06,0.023 0.083,0.041c0.022,0.018 0.039,0.04 0.051,0.067c0.012,0.027 0.018,0.058 0.018,0.093c0,0.026 -0.003,0.049 -0.008,0.07c-0.006,0.021 -0.015,0.039 -0.026,0.055c-0.011,0.016 -0.024,0.03 -0.04,0.042c-0.016,0.012 -0.033,0.023 -0.053,0.032l0.154,0.29l0,0.007l-0.157,0l-0.133,-0.26zm-0.117,-0.119l0.118,0c0.019,0 0.036,-0.002 0.051,-0.007c0.014,-0.006 0.026,-0.013 0.036,-0.022c0.009,-0.009 0.017,-0.02 0.022,-0.033c0.004,-0.013 0.007,-0.027 0.007,-0.043c0,-0.034 -0.01,-0.06 -0.029,-0.079c-0.019,-0.02 -0.048,-0.029 -0.087,-0.029l-0.118,0l0,0.213z"/>
     </g>
     <g id="svg_31" transform="matrix(59.0372 0 0 64 356.788 587)">
      <path id="svg_32" fill-rule="nonzero" fill="rgb(90,90,90)" d="m0.30076,0.0227c-0.041,0 -0.077,-0.007 -0.11,-0.02c-0.032,-0.014 -0.06,-0.032 -0.082,-0.055c-0.023,-0.023 -0.04,-0.05 -0.052,-0.081c-0.012,-0.031 -0.018,-0.065 -0.018,-0.1l0,-0.019c0,-0.04 0.006,-0.077 0.017,-0.11c0.012,-0.034 0.028,-0.062 0.05,-0.086c0.021,-0.025 0.047,-0.043 0.077,-0.057c0.031,-0.013 0.065,-0.02 0.103,-0.02c0.038,0 0.071,0.006 0.1,0.019c0.029,0.012 0.054,0.03 0.073,0.052c0.02,0.023 0.035,0.05 0.045,0.082c0.01,0.032 0.015,0.068 0.015,0.107l0,0.06l-0.337,0c0.003,0.017 0.007,0.033 0.014,0.047c0.007,0.014 0.016,0.026 0.027,0.036c0.011,0.009 0.024,0.017 0.038,0.023c0.015,0.005 0.031,0.008 0.05,0.008c0.025,0 0.049,-0.005 0.071,-0.014c0.022,-0.01 0.04,-0.025 0.056,-0.045l0.069,0.078c-0.008,0.012 -0.019,0.023 -0.031,0.035c-0.013,0.011 -0.028,0.021 -0.045,0.03c-0.017,0.009 -0.037,0.016 -0.059,0.022c-0.021,0.005 -0.045,0.008 -0.071,0.008zm-0.016,-0.434c-0.015,0 -0.028,0.003 -0.04,0.008c-0.012,0.006 -0.022,0.013 -0.03,0.023c-0.008,0.009 -0.015,0.021 -0.02,0.034c-0.005,0.013 -0.009,0.028 -0.011,0.045l0.196,0l0,-0.012c0,-0.014 -0.002,-0.027 -0.006,-0.039c-0.004,-0.012 -0.01,-0.022 -0.017,-0.031c-0.008,-0.009 -0.018,-0.016 -0.03,-0.021c-0.011,-0.004 -0.025,-0.007 -0.042,-0.007z"/>
     </g>
     <g id="svg_33" transform="matrix(59.0372 0 0 64 388.699 587)">
      <path id="svg_34" fill-rule="nonzero" fill="rgb(90,90,90)" d="m0.36376,0.0127c-0.006,-0.013 -0.011,-0.028 -0.014,-0.047c-0.014,0.016 -0.032,0.029 -0.054,0.04c-0.021,0.011 -0.048,0.017 -0.079,0.017c-0.025,0 -0.049,-0.004 -0.071,-0.012c-0.022,-0.008 -0.041,-0.019 -0.057,-0.033c-0.016,-0.014 -0.029,-0.03 -0.038,-0.05c-0.009,-0.019 -0.014,-0.04 -0.014,-0.063c0,-0.028 0.005,-0.053 0.016,-0.074c0.01,-0.022 0.025,-0.04 0.046,-0.055c0.02,-0.015 0.046,-0.026 0.076,-0.034c0.031,-0.008 0.066,-0.012 0.106,-0.012l0.063,0l0,-0.03c0,-0.024 -0.006,-0.044 -0.018,-0.059c-0.013,-0.014 -0.033,-0.022 -0.06,-0.022c-0.024,0 -0.042,0.006 -0.056,0.017c-0.013,0.012 -0.02,0.028 -0.02,0.047l-0.141,0c0,-0.022 0.005,-0.044 0.016,-0.065c0.01,-0.02 0.025,-0.038 0.045,-0.053c0.019,-0.016 0.043,-0.028 0.071,-0.037c0.027,-0.009 0.058,-0.013 0.093,-0.013c0.03,0 0.058,0.004 0.084,0.012c0.027,0.007 0.049,0.019 0.068,0.035c0.019,0.015 0.033,0.034 0.044,0.058c0.011,0.023 0.016,0.05 0.016,0.081l0,0.224c0,0.015 0,0.028 0.001,0.04c0.001,0.012 0.003,0.022 0.004,0.032c0.002,0.01 0.004,0.018 0.007,0.026c0.002,0.008 0.005,0.015 0.009,0.022l0,0.008l-0.143,0zm-0.116,-0.098c0.012,0 0.023,-0.002 0.033,-0.005c0.01,-0.002 0.02,-0.006 0.028,-0.011c0.008,-0.005 0.015,-0.01 0.021,-0.016c0.006,-0.007 0.011,-0.013 0.014,-0.019l0,-0.091l-0.058,0c-0.018,0 -0.034,0.002 -0.048,0.006c-0.014,0.004 -0.025,0.01 -0.034,0.017c-0.009,0.007 -0.015,0.016 -0.019,0.026c-0.005,0.01 -0.007,0.021 -0.007,0.032c0,0.018 0.007,0.032 0.019,0.044c0.012,0.011 0.029,0.017 0.051,0.017z"/>
     </g>
     <g id="svg_35" transform="matrix(59.0372 0 0 64 420.351 587)">
      <path id="svg_36" fill-rule="nonzero" fill="rgb(90,90,90)" d="m0.27776,-0.0913c0.013,0 0.025,-0.002 0.036,-0.006c0.01,-0.003 0.02,-0.009 0.027,-0.015c0.008,-0.007 0.014,-0.016 0.019,-0.025c0.004,-0.01 0.006,-0.021 0.007,-0.033l0.132,0c0,0.028 -0.006,0.054 -0.017,0.078c-0.012,0.023 -0.027,0.044 -0.047,0.061c-0.019,0.017 -0.042,0.03 -0.069,0.04c-0.026,0.009 -0.055,0.014 -0.086,0.014c-0.041,0 -0.076,-0.007 -0.107,-0.021c-0.031,-0.014 -0.056,-0.033 -0.076,-0.057c-0.02,-0.024 -0.036,-0.052 -0.046,-0.084c-0.01,-0.032 -0.015,-0.067 -0.015,-0.105l0,-0.014c0,-0.037 0.005,-0.072 0.015,-0.104c0.01,-0.033 0.026,-0.061 0.046,-0.085c0.02,-0.025 0.045,-0.043 0.076,-0.057c0.03,-0.014 0.066,-0.021 0.106,-0.021c0.033,0 0.063,0.005 0.09,0.014c0.026,0.01 0.049,0.024 0.069,0.042c0.019,0.017 0.034,0.039 0.045,0.065c0.01,0.025 0.016,0.054 0.016,0.085l-0.132,0c-0.001,-0.012 -0.003,-0.024 -0.007,-0.035c-0.004,-0.012 -0.01,-0.021 -0.017,-0.03c-0.008,-0.008 -0.017,-0.015 -0.028,-0.02c-0.011,-0.004 -0.024,-0.007 -0.038,-0.007c-0.021,0 -0.037,0.004 -0.05,0.013c-0.013,0.008 -0.024,0.02 -0.031,0.034c-0.007,0.014 -0.012,0.03 -0.015,0.049c-0.002,0.018 -0.004,0.038 -0.004,0.057l0,0.014c0,0.02 0.002,0.04 0.004,0.058c0.003,0.019 0.008,0.035 0.015,0.049c0.007,0.014 0.018,0.025 0.031,0.034c0.013,0.008 0.03,0.012 0.051,0.012z"/>
     </g>
     <g id="svg_37" transform="matrix(59.0372 0 0 64 451.138 587)">
      <path id="svg_38" fill-rule="nonzero" fill="rgb(90,90,90)" d="m0.22676,-0.6453l0,0.13l0.09,0l0,0.103l-0.09,0l0,0.264c0,0.011 0.001,0.02 0.004,0.027c0.002,0.007 0.005,0.013 0.01,0.017c0.004,0.004 0.01,0.007 0.017,0.008c0.006,0.002 0.014,0.003 0.023,0.003c0.009,0 0.017,-0.001 0.024,-0.001c0.007,-0.001 0.013,-0.002 0.018,-0.003l0,0.107c-0.012,0.004 -0.025,0.007 -0.038,0.009c-0.014,0.003 -0.03,0.004 -0.048,0.004c-0.023,0 -0.044,-0.003 -0.062,-0.009c-0.019,-0.005 -0.035,-0.015 -0.048,-0.027c-0.013,-0.012 -0.023,-0.028 -0.03,-0.048c-0.007,-0.02 -0.011,-0.044 -0.011,-0.072l0,-0.279l-0.077,0l0,-0.103l0.077,0l0,-0.13l0.141,0z"/>
     </g>
     <g id="svg_39" transform="matrix(59.0372 0 0 64 471.086 587)">
      <path id="svg_40" fill-rule="nonzero" fill="rgb(90,90,90)" d="m0.35376,-0.6983l0.147,0l0,0.492c0,0.036 -0.006,0.068 -0.018,0.096c-0.013,0.028 -0.029,0.052 -0.051,0.072c-0.021,0.02 -0.046,0.035 -0.075,0.045c-0.029,0.011 -0.061,0.016 -0.095,0.016c-0.035,0 -0.067,-0.005 -0.096,-0.013c-0.029,-0.009 -0.054,-0.023 -0.075,-0.041c-0.021,-0.018 -0.038,-0.041 -0.05,-0.068c-0.012,-0.028 -0.017,-0.06 -0.017,-0.098l0.147,0c0,0.019 0.002,0.035 0.006,0.048c0.005,0.013 0.011,0.024 0.019,0.032c0.008,0.008 0.017,0.014 0.028,0.017c0.012,0.003 0.024,0.005 0.038,0.005c0.028,0 0.051,-0.01 0.067,-0.029c0.017,-0.019 0.025,-0.046 0.025,-0.082l0,-0.492z"/>
     </g>
     <g id="svg_41" transform="matrix(59.0372 0 0 64 504.063 587)">
      <path id="svg_42" fill-rule="nonzero" fill="rgb(90,90,90)" d="m0.43576,-0.1743c0,-0.012 -0.002,-0.023 -0.005,-0.033c-0.004,-0.01 -0.011,-0.019 -0.021,-0.028c-0.01,-0.008 -0.024,-0.016 -0.042,-0.024c-0.019,-0.009 -0.042,-0.017 -0.071,-0.026c-0.032,-0.011 -0.063,-0.022 -0.092,-0.035c-0.028,-0.014 -0.054,-0.029 -0.075,-0.047c-0.022,-0.017 -0.039,-0.038 -0.052,-0.061c-0.012,-0.023 -0.018,-0.05 -0.018,-0.081c0,-0.03 0.006,-0.057 0.019,-0.081c0.013,-0.025 0.031,-0.046 0.054,-0.063c0.023,-0.017 0.051,-0.031 0.083,-0.04c0.032,-0.01 0.067,-0.015 0.106,-0.015c0.039,0 0.075,0.006 0.107,0.017c0.033,0.011 0.06,0.026 0.083,0.045c0.023,0.02 0.04,0.043 0.053,0.07c0.012,0.027 0.018,0.056 0.018,0.088l-0.146,0c0,-0.015 -0.003,-0.029 -0.007,-0.041c-0.005,-0.013 -0.012,-0.024 -0.022,-0.033c-0.01,-0.009 -0.022,-0.016 -0.037,-0.021c-0.014,-0.005 -0.032,-0.008 -0.052,-0.008c-0.019,0 -0.035,0.002 -0.05,0.006c-0.014,0.005 -0.025,0.01 -0.035,0.018c-0.009,0.007 -0.016,0.016 -0.021,0.026c-0.004,0.01 -0.007,0.021 -0.007,0.033c0,0.023 0.012,0.043 0.036,0.058c0.024,0.016 0.059,0.031 0.105,0.045c0.039,0.012 0.073,0.025 0.103,0.04c0.029,0.014 0.054,0.031 0.073,0.049c0.02,0.019 0.035,0.04 0.045,0.063c0.01,0.023 0.015,0.049 0.015,0.078c0,0.032 -0.006,0.06 -0.018,0.084c-0.012,0.024 -0.03,0.045 -0.052,0.062c-0.023,0.017 -0.05,0.029 -0.082,0.038c-0.031,0.009 -0.067,0.014 -0.106,0.014c-0.023,0 -0.047,-0.002 -0.07,-0.006c-0.023,-0.004 -0.046,-0.011 -0.067,-0.019c-0.021,-0.009 -0.041,-0.019 -0.059,-0.032c-0.019,-0.013 -0.035,-0.028 -0.048,-0.045c-0.014,-0.017 -0.024,-0.037 -0.032,-0.059c-0.007,-0.022 -0.011,-0.046 -0.011,-0.073l0.147,0c0,0.022 0.003,0.04 0.01,0.055c0.007,0.015 0.016,0.027 0.028,0.036c0.013,0.01 0.027,0.016 0.045,0.021c0.017,0.004 0.036,0.006 0.057,0.006c0.019,0 0.036,-0.002 0.05,-0.006c0.014,-0.004 0.025,-0.01 0.034,-0.017c0.009,-0.007 0.016,-0.016 0.021,-0.026c0.004,-0.009 0.006,-0.02 0.006,-0.032z"/>
     </g>
     <g id="svg_43" transform="matrix(59.0372 0 0 64 555.058 587)">
      <path id="svg_44" fill-rule="nonzero" fill="rgb(90,90,90)" d="m0.36376,0.0127c-0.006,-0.013 -0.011,-0.028 -0.014,-0.047c-0.014,0.016 -0.032,0.029 -0.054,0.04c-0.021,0.011 -0.048,0.017 -0.079,0.017c-0.025,0 -0.049,-0.004 -0.071,-0.012c-0.022,-0.008 -0.041,-0.019 -0.057,-0.033c-0.016,-0.014 -0.029,-0.03 -0.038,-0.05c-0.009,-0.019 -0.014,-0.04 -0.014,-0.063c0,-0.028 0.005,-0.053 0.016,-0.074c0.01,-0.022 0.025,-0.04 0.046,-0.055c0.02,-0.015 0.046,-0.026 0.076,-0.034c0.031,-0.008 0.066,-0.012 0.106,-0.012l0.063,0l0,-0.03c0,-0.024 -0.006,-0.044 -0.018,-0.059c-0.013,-0.014 -0.033,-0.022 -0.06,-0.022c-0.024,0 -0.042,0.006 -0.056,0.017c-0.013,0.012 -0.02,0.028 -0.02,0.047l-0.141,0c0,-0.022 0.005,-0.044 0.016,-0.065c0.01,-0.02 0.025,-0.038 0.045,-0.053c0.019,-0.016 0.043,-0.028 0.071,-0.037c0.027,-0.009 0.058,-0.013 0.093,-0.013c0.03,0 0.058,0.004 0.084,0.012c0.027,0.007 0.049,0.019 0.068,0.035c0.019,0.015 0.033,0.034 0.044,0.058c0.011,0.023 0.016,0.05 0.016,0.081l0,0.224c0,0.015 0,0.028 0.001,0.04c0.001,0.012 0.003,0.022 0.004,0.032c0.002,0.01 0.004,0.018 0.007,0.026c0.002,0.008 0.005,0.015 0.009,0.022l0,0.008l-0.143,0zm-0.116,-0.098c0.012,0 0.023,-0.002 0.033,-0.005c0.01,-0.002 0.02,-0.006 0.028,-0.011c0.008,-0.005 0.015,-0.01 0.021,-0.016c0.006,-0.007 0.011,-0.013 0.014,-0.019l0,-0.091l-0.058,0c-0.018,0 -0.034,0.002 -0.048,0.006c-0.014,0.004 -0.025,0.01 -0.034,0.017c-0.009,0.007 -0.015,0.016 -0.019,0.026c-0.005,0.01 -0.007,0.021 -0.007,0.032c0,0.018 0.007,0.032 0.019,0.044c0.012,0.011 0.029,0.017 0.051,0.017z"/>
     </g>
     <g id="svg_45" transform="matrix(59.0372 0 0 64 586.71 587)">
      <path id="svg_46" fill-rule="nonzero" fill="rgb(90,90,90)" d="m0.18776,-0.5153l0.004,0.061c0.019,-0.023 0.041,-0.041 0.066,-0.053c0.026,-0.012 0.055,-0.018 0.086,-0.018c0.025,0 0.048,0.003 0.069,0.01c0.02,0.007 0.038,0.019 0.052,0.035c0.015,0.016 0.026,0.037 0.034,0.062c0.008,0.026 0.012,0.058 0.012,0.095l0,0.336l-0.141,0l0,-0.337c0,-0.017 -0.002,-0.031 -0.005,-0.042c-0.004,-0.011 -0.01,-0.02 -0.017,-0.026c-0.007,-0.007 -0.016,-0.011 -0.026,-0.014c-0.011,-0.003 -0.023,-0.004 -0.036,-0.004c-0.021,0 -0.039,0.004 -0.054,0.013c-0.015,0.009 -0.027,0.022 -0.036,0.037l0,0.373l-0.141,0l0,-0.528l0.133,0z"/>
     </g>
     <g id="svg_47" transform="matrix(59.0372 0 0 64 619.774 587)">
      <path id="svg_48" fill-rule="nonzero" fill="rgb(90,90,90)" d="m0.03576,-0.2553c0,-0.04 0.005,-0.077 0.014,-0.11c0.009,-0.033 0.023,-0.062 0.04,-0.085c0.018,-0.024 0.04,-0.043 0.065,-0.056c0.026,-0.013 0.055,-0.019 0.088,-0.019c0.027,0 0.051,0.005 0.072,0.015c0.021,0.01 0.04,0.024 0.056,0.043l0,-0.27l0.141,0l0,0.75l-0.127,0l-0.007,-0.056c-0.017,0.021 -0.036,0.037 -0.058,0.048c-0.022,0.012 -0.048,0.018 -0.078,0.018c-0.032,0 -0.061,-0.007 -0.087,-0.02c-0.025,-0.014 -0.047,-0.033 -0.065,-0.056c-0.017,-0.024 -0.031,-0.052 -0.04,-0.085c-0.009,-0.033 -0.014,-0.068 -0.014,-0.107l0,-0.01zm0.141,0.01c0,0.022 0.002,0.042 0.006,0.06c0.003,0.019 0.009,0.035 0.017,0.049c0.008,0.014 0.018,0.025 0.031,0.033c0.013,0.008 0.029,0.012 0.047,0.012c0.023,0 0.042,-0.005 0.057,-0.015c0.015,-0.01 0.027,-0.023 0.036,-0.041l0,-0.208c-0.009,-0.018 -0.021,-0.031 -0.036,-0.041c-0.015,-0.01 -0.033,-0.014 -0.056,-0.014c-0.018,0 -0.034,0.004 -0.047,0.012c-0.013,0.008 -0.023,0.019 -0.031,0.033c-0.008,0.014 -0.014,0.03 -0.018,0.049c-0.004,0.019 -0.006,0.039 -0.006,0.061l0,0.01z"/>
     </g>
     <g id="svg_49" transform="matrix(59.0372 0 0 64 667.742 587)">
      <path id="svg_50" fill-rule="nonzero" fill="rgb(90,90,90)" d="m0.62076,-0.1923l0.096,-0.506l0.146,0l-0.158,0.711l-0.147,0l-0.116,-0.476l-0.116,0.476l-0.147,0l-0.158,-0.711l0.146,0l0.096,0.505l0.117,-0.505l0.124,0l0.117,0.506z"/>
     </g>
     <g id="svg_51" transform="matrix(59.0372 0 0 64 718.477 587)">
      <path id="svg_52" fill-rule="nonzero" fill="rgb(90,90,90)" d="m0.30076,0.0227c-0.041,0 -0.077,-0.007 -0.11,-0.02c-0.032,-0.014 -0.06,-0.032 -0.082,-0.055c-0.023,-0.023 -0.04,-0.05 -0.052,-0.081c-0.012,-0.031 -0.018,-0.065 -0.018,-0.1l0,-0.019c0,-0.04 0.006,-0.077 0.017,-0.11c0.012,-0.034 0.028,-0.062 0.05,-0.086c0.021,-0.025 0.047,-0.043 0.077,-0.057c0.031,-0.013 0.065,-0.02 0.103,-0.02c0.038,0 0.071,0.006 0.1,0.019c0.029,0.012 0.054,0.03 0.073,0.052c0.02,0.023 0.035,0.05 0.045,0.082c0.01,0.032 0.015,0.068 0.015,0.107l0,0.06l-0.337,0c0.003,0.017 0.007,0.033 0.014,0.047c0.007,0.014 0.016,0.026 0.027,0.036c0.011,0.009 0.024,0.017 0.038,0.023c0.015,0.005 0.031,0.008 0.05,0.008c0.025,0 0.049,-0.005 0.071,-0.014c0.022,-0.01 0.04,-0.025 0.056,-0.045l0.069,0.078c-0.008,0.012 -0.019,0.023 -0.031,0.035c-0.013,0.011 -0.028,0.021 -0.045,0.03c-0.017,0.009 -0.037,0.016 -0.059,0.022c-0.021,0.005 -0.045,0.008 -0.071,0.008zm-0.016,-0.434c-0.015,0 -0.028,0.003 -0.04,0.008c-0.012,0.006 -0.022,0.013 -0.03,0.023c-0.008,0.009 -0.015,0.021 -0.02,0.034c-0.005,0.013 -0.009,0.028 -0.011,0.045l0.196,0l0,-0.012c0,-0.014 -0.002,-0.027 -0.006,-0.039c-0.004,-0.012 -0.01,-0.022 -0.017,-0.031c-0.008,-0.009 -0.018,-0.016 -0.03,-0.021c-0.011,-0.004 -0.025,-0.007 -0.042,-0.007z"/>
     </g>
     <g id="svg_53" transform="matrix(59.0372 0 0 64 750.388 587)">
      <path id="svg_54" fill-rule="nonzero" fill="rgb(90,90,90)" d="m0.53376,-0.2463c0,0.039 -0.004,0.076 -0.012,0.109c-0.009,0.032 -0.022,0.061 -0.039,0.085c-0.017,0.023 -0.038,0.042 -0.064,0.055c-0.026,0.013 -0.056,0.02 -0.09,0.02c-0.031,0 -0.057,-0.006 -0.08,-0.018c-0.022,-0.011 -0.041,-0.027 -0.057,-0.048l-0.007,0.056l-0.127,0l0,-0.75l0.141,0l0,0.269c0.016,-0.018 0.034,-0.032 0.055,-0.042c0.021,-0.01 0.046,-0.015 0.074,-0.015c0.034,0 0.064,0.007 0.09,0.02c0.026,0.013 0.048,0.032 0.065,0.056c0.017,0.023 0.03,0.052 0.039,0.085c0.008,0.032 0.012,0.068 0.012,0.107l0,0.011zm-0.141,-0.011c0,-0.02 -0.001,-0.04 -0.004,-0.059c-0.003,-0.019 -0.008,-0.035 -0.016,-0.049c-0.008,-0.014 -0.018,-0.025 -0.031,-0.033c-0.013,-0.008 -0.03,-0.012 -0.05,-0.012c-0.024,0 -0.043,0.004 -0.058,0.014c-0.015,0.01 -0.027,0.023 -0.035,0.041l0,0.208c0.008,0.018 0.02,0.032 0.035,0.041c0.015,0.01 0.035,0.015 0.059,0.015c0.02,0 0.036,-0.004 0.049,-0.012c0.013,-0.008 0.023,-0.018 0.031,-0.032c0.008,-0.014 0.013,-0.03 0.016,-0.049c0.003,-0.019 0.004,-0.04 0.004,-0.062l0,-0.011z"/>
     </g>
     <g id="svg_55" transform="matrix(59.0372 0 0 64 783.625 587)">
      <path id="svg_56" fill-rule="nonzero" fill="rgb(90,90,90)" d="m0.34376,-0.1333c0,-0.007 -0.001,-0.014 -0.004,-0.021c-0.003,-0.006 -0.009,-0.011 -0.017,-0.017c-0.008,-0.005 -0.019,-0.01 -0.033,-0.015c-0.014,-0.005 -0.032,-0.01 -0.054,-0.014c-0.027,-0.006 -0.052,-0.014 -0.075,-0.022c-0.023,-0.009 -0.043,-0.02 -0.06,-0.033c-0.016,-0.013 -0.029,-0.028 -0.039,-0.045c-0.009,-0.018 -0.014,-0.038 -0.014,-0.061c0,-0.022 0.005,-0.043 0.014,-0.063c0.01,-0.019 0.024,-0.037 0.042,-0.052c0.018,-0.015 0.04,-0.027 0.066,-0.036c0.026,-0.009 0.056,-0.013 0.089,-0.013c0.034,0 0.065,0.004 0.092,0.013c0.028,0.008 0.051,0.02 0.07,0.035c0.019,0.015 0.033,0.033 0.044,0.054c0.01,0.021 0.015,0.044 0.015,0.068l-0.141,0c0,-0.02 -0.007,-0.037 -0.02,-0.05c-0.013,-0.013 -0.033,-0.02 -0.061,-0.02c-0.023,0 -0.042,0.006 -0.055,0.017c-0.013,0.01 -0.019,0.024 -0.019,0.041c0,0.007 0.001,0.014 0.005,0.02c0.003,0.006 0.009,0.012 0.016,0.017c0.008,0.005 0.018,0.01 0.031,0.014c0.012,0.004 0.028,0.008 0.046,0.012c0.028,0.005 0.055,0.012 0.079,0.02c0.025,0.008 0.046,0.019 0.064,0.032c0.017,0.012 0.031,0.028 0.041,0.046c0.01,0.019 0.016,0.041 0.016,0.067c0,0.024 -0.006,0.045 -0.016,0.065c-0.011,0.02 -0.025,0.037 -0.045,0.051c-0.019,0.014 -0.042,0.025 -0.07,0.034c-0.027,0.008 -0.058,0.012 -0.092,0.012c-0.037,0 -0.069,-0.005 -0.098,-0.016c-0.028,-0.01 -0.052,-0.024 -0.071,-0.041c-0.02,-0.017 -0.034,-0.036 -0.044,-0.057c-0.01,-0.021 -0.015,-0.042 -0.015,-0.064l0.134,0c0.001,0.014 0.004,0.026 0.009,0.035c0.006,0.01 0.013,0.018 0.021,0.025c0.009,0.006 0.019,0.01 0.031,0.013c0.011,0.003 0.024,0.005 0.036,0.005c0.027,0 0.048,-0.005 0.062,-0.016c0.013,-0.01 0.02,-0.023 0.02,-0.04z"/>
     </g>
     <g id="svg_57" transform="matrix(59.0372 0 0 64 813.98 587)">
      <path id="svg_58" fill-rule="nonzero" fill="rgb(90,90,90)" d="m0.20676,0.0127l-0.141,0l0,-0.528l0.141,0l0,0.528zm-0.15,-0.665c0,-0.021 0.007,-0.039 0.021,-0.052c0.015,-0.014 0.034,-0.021 0.058,-0.021c0.012,0 0.023,0.002 0.033,0.006c0.01,0.003 0.018,0.008 0.025,0.015c0.007,0.006 0.012,0.014 0.016,0.023c0.004,0.009 0.005,0.019 0.005,0.029c0,0.011 -0.001,0.021 -0.005,0.03c-0.004,0.008 -0.009,0.016 -0.016,0.023c-0.007,0.006 -0.015,0.011 -0.025,0.015c-0.01,0.003 -0.021,0.005 -0.033,0.005c-0.012,0 -0.023,-0.002 -0.032,-0.005c-0.01,-0.004 -0.018,-0.009 -0.025,-0.015c-0.007,-0.007 -0.012,-0.015 -0.016,-0.023c-0.004,-0.009 -0.006,-0.019 -0.006,-0.03z"/>
     </g>
     <g id="svg_59" transform="matrix(59.0372 0 0 64 829.633 587)">
      <path id="svg_60" fill-rule="nonzero" fill="rgb(90,90,90)" d="m0.22676,-0.6453l0,0.13l0.09,0l0,0.103l-0.09,0l0,0.264c0,0.011 0.001,0.02 0.004,0.027c0.002,0.007 0.005,0.013 0.01,0.017c0.004,0.004 0.01,0.007 0.017,0.008c0.006,0.002 0.014,0.003 0.023,0.003c0.009,0 0.017,-0.001 0.024,-0.001c0.007,-0.001 0.013,-0.002 0.018,-0.003l0,0.107c-0.012,0.004 -0.025,0.007 -0.038,0.009c-0.014,0.003 -0.03,0.004 -0.048,0.004c-0.023,0 -0.044,-0.003 -0.062,-0.009c-0.019,-0.005 -0.035,-0.015 -0.048,-0.027c-0.013,-0.012 -0.023,-0.028 -0.03,-0.048c-0.007,-0.02 -0.011,-0.044 -0.011,-0.072l0,-0.279l-0.077,0l0,-0.103l0.077,0l0,-0.13l0.141,0z"/>
     </g>
     <g id="svg_61" transform="matrix(59.0372 0 0 64 849.581 587)">
      <path id="svg_62" fill-rule="nonzero" fill="rgb(90,90,90)" d="m0.30076,0.0227c-0.041,0 -0.077,-0.007 -0.11,-0.02c-0.032,-0.014 -0.06,-0.032 -0.082,-0.055c-0.023,-0.023 -0.04,-0.05 -0.052,-0.081c-0.012,-0.031 -0.018,-0.065 -0.018,-0.1l0,-0.019c0,-0.04 0.006,-0.077 0.017,-0.11c0.012,-0.034 0.028,-0.062 0.05,-0.086c0.021,-0.025 0.047,-0.043 0.077,-0.057c0.031,-0.013 0.065,-0.02 0.103,-0.02c0.038,0 0.071,0.006 0.1,0.019c0.029,0.012 0.054,0.03 0.073,0.052c0.02,0.023 0.035,0.05 0.045,0.082c0.01,0.032 0.015,0.068 0.015,0.107l0,0.06l-0.337,0c0.003,0.017 0.007,0.033 0.014,0.047c0.007,0.014 0.016,0.026 0.027,0.036c0.011,0.009 0.024,0.017 0.038,0.023c0.015,0.005 0.031,0.008 0.05,0.008c0.025,0 0.049,-0.005 0.071,-0.014c0.022,-0.01 0.04,-0.025 0.056,-0.045l0.069,0.078c-0.008,0.012 -0.019,0.023 -0.031,0.035c-0.013,0.011 -0.028,0.021 -0.045,0.03c-0.017,0.009 -0.037,0.016 -0.059,0.022c-0.021,0.005 -0.045,0.008 -0.071,0.008zm-0.016,-0.434c-0.015,0 -0.028,0.003 -0.04,0.008c-0.012,0.006 -0.022,0.013 -0.03,0.023c-0.008,0.009 -0.015,0.021 -0.02,0.034c-0.005,0.013 -0.009,0.028 -0.011,0.045l0.196,0l0,-0.012c0,-0.014 -0.002,-0.027 -0.006,-0.039c-0.004,-0.012 -0.01,-0.022 -0.017,-0.031c-0.008,-0.009 -0.018,-0.016 -0.03,-0.021c-0.011,-0.004 -0.025,-0.007 -0.042,-0.007z"/>
     </g>
     <g id="svg_63" transform="matrix(59.0372 0 0 64 896.194 587)">
      <path id="svg_64" fill-rule="nonzero" fill="rgb(90,90,90)" d="m0.06676,0.0127l0,-0.711l0.25,0c0.041,0 0.078,0.004 0.11,0.012c0.033,0.008 0.06,0.02 0.083,0.036c0.023,0.016 0.04,0.036 0.052,0.06c0.012,0.025 0.018,0.054 0.018,0.087c0,0.016 -0.002,0.032 -0.006,0.047c-0.004,0.015 -0.011,0.029 -0.019,0.042c-0.008,0.013 -0.019,0.025 -0.031,0.035c-0.013,0.011 -0.028,0.019 -0.046,0.026c0.021,0.005 0.039,0.013 0.054,0.024c0.014,0.011 0.027,0.023 0.036,0.037c0.01,0.014 0.017,0.029 0.021,0.045c0.005,0.017 0.007,0.034 0.007,0.051c0,0.069 -0.022,0.121 -0.067,0.156c-0.044,0.035 -0.108,0.053 -0.19,0.053l-0.272,0zm0.147,-0.31l0,0.192l0.125,0c0.019,0 0.036,-0.002 0.049,-0.007c0.014,-0.004 0.025,-0.011 0.034,-0.019c0.01,-0.009 0.016,-0.018 0.021,-0.03c0.004,-0.011 0.006,-0.023 0.006,-0.036c0,-0.016 -0.002,-0.03 -0.006,-0.042c-0.003,-0.012 -0.01,-0.022 -0.018,-0.031c-0.008,-0.009 -0.019,-0.015 -0.032,-0.02c-0.014,-0.004 -0.03,-0.007 -0.048,-0.007l-0.131,0zm0,-0.103l0.108,0c0.038,-0.001 0.066,-0.009 0.084,-0.024c0.018,-0.015 0.027,-0.036 0.027,-0.064c0,-0.033 -0.009,-0.056 -0.028,-0.07c-0.019,-0.014 -0.048,-0.021 -0.088,-0.021l-0.103,0l0,0.179z"/>
     </g>
     <g id="svg_65" transform="matrix(59.0372 0 0 64 933.87 587)">
      <path id="svg_66" fill-rule="nonzero" fill="rgb(90,90,90)" d="m0.36376,0.0127c-0.006,-0.013 -0.011,-0.028 -0.014,-0.047c-0.014,0.016 -0.032,0.029 -0.054,0.04c-0.021,0.011 -0.048,0.017 -0.079,0.017c-0.025,0 -0.049,-0.004 -0.071,-0.012c-0.022,-0.008 -0.041,-0.019 -0.057,-0.033c-0.016,-0.014 -0.029,-0.03 -0.038,-0.05c-0.009,-0.019 -0.014,-0.04 -0.014,-0.063c0,-0.028 0.005,-0.053 0.016,-0.074c0.01,-0.022 0.025,-0.04 0.046,-0.055c0.02,-0.015 0.046,-0.026 0.076,-0.034c0.031,-0.008 0.066,-0.012 0.106,-0.012l0.063,0l0,-0.03c0,-0.024 -0.006,-0.044 -0.018,-0.059c-0.013,-0.014 -0.033,-0.022 -0.06,-0.022c-0.024,0 -0.042,0.006 -0.056,0.017c-0.013,0.012 -0.02,0.028 -0.02,0.047l-0.141,0c0,-0.022 0.005,-0.044 0.016,-0.065c0.01,-0.02 0.025,-0.038 0.045,-0.053c0.019,-0.016 0.043,-0.028 0.071,-0.037c0.027,-0.009 0.058,-0.013 0.093,-0.013c0.03,0 0.058,0.004 0.084,0.012c0.027,0.007 0.049,0.019 0.068,0.035c0.019,0.015 0.033,0.034 0.044,0.058c0.011,0.023 0.016,0.05 0.016,0.081l0,0.224c0,0.015 0,0.028 0.001,0.04c0.001,0.012 0.003,0.022 0.004,0.032c0.002,0.01 0.004,0.018 0.007,0.026c0.002,0.008 0.005,0.015 0.009,0.022l0,0.008l-0.143,0zm-0.116,-0.098c0.012,0 0.023,-0.002 0.033,-0.005c0.01,-0.002 0.02,-0.006 0.028,-0.011c0.008,-0.005 0.015,-0.01 0.021,-0.016c0.006,-0.007 0.011,-0.013 0.014,-0.019l0,-0.091l-0.058,0c-0.018,0 -0.034,0.002 -0.048,0.006c-0.014,0.004 -0.025,0.01 -0.034,0.017c-0.009,0.007 -0.015,0.016 -0.019,0.026c-0.005,0.01 -0.007,0.021 -0.007,0.032c0,0.018 0.007,0.032 0.019,0.044c0.012,0.011 0.029,0.017 0.051,0.017z"/>
     </g>
     <g id="svg_67" transform="matrix(59.0372 0 0 64 965.522 587)">
      <path id="svg_68" fill-rule="nonzero" fill="rgb(90,90,90)" d="m0.27776,-0.0913c0.013,0 0.025,-0.002 0.036,-0.006c0.01,-0.003 0.02,-0.009 0.027,-0.015c0.008,-0.007 0.014,-0.016 0.019,-0.025c0.004,-0.01 0.006,-0.021 0.007,-0.033l0.132,0c0,0.028 -0.006,0.054 -0.017,0.078c-0.012,0.023 -0.027,0.044 -0.047,0.061c-0.019,0.017 -0.042,0.03 -0.069,0.04c-0.026,0.009 -0.055,0.014 -0.086,0.014c-0.041,0 -0.076,-0.007 -0.107,-0.021c-0.031,-0.014 -0.056,-0.033 -0.076,-0.057c-0.02,-0.024 -0.036,-0.052 -0.046,-0.084c-0.01,-0.032 -0.015,-0.067 -0.015,-0.105l0,-0.014c0,-0.037 0.005,-0.072 0.015,-0.104c0.01,-0.033 0.026,-0.061 0.046,-0.085c0.02,-0.025 0.045,-0.043 0.076,-0.057c0.03,-0.014 0.066,-0.021 0.106,-0.021c0.033,0 0.063,0.005 0.09,0.014c0.026,0.01 0.049,0.024 0.069,0.042c0.019,0.017 0.034,0.039 0.045,0.065c0.01,0.025 0.016,0.054 0.016,0.085l-0.132,0c-0.001,-0.012 -0.003,-0.024 -0.007,-0.035c-0.004,-0.012 -0.01,-0.021 -0.017,-0.03c-0.008,-0.008 -0.017,-0.015 -0.028,-0.02c-0.011,-0.004 -0.024,-0.007 -0.038,-0.007c-0.021,0 -0.037,0.004 -0.05,0.013c-0.013,0.008 -0.024,0.02 -0.031,0.034c-0.007,0.014 -0.012,0.03 -0.015,0.049c-0.002,0.018 -0.004,0.038 -0.004,0.057l0,0.014c0,0.02 0.002,0.04 0.004,0.058c0.003,0.019 0.008,0.035 0.015,0.049c0.007,0.014 0.018,0.025 0.031,0.034c0.013,0.008 0.03,0.012 0.051,0.012z"/>
     </g>
     <g id="svg_69" transform="matrix(59.0372 0 0 64 996.309 587)">
      <path id="svg_70" fill-rule="nonzero" fill="rgb(90,90,90)" d="m0.24976,-0.1993l-0.051,0.051l0,0.161l-0.141,0l0,-0.75l0.141,0l0,0.416l0.028,-0.036l0.135,-0.158l0.169,0l-0.191,0.22l0.208,0.308l-0.162,0l-0.136,-0.212z"/>
     </g>
     <g id="svg_71" transform="matrix(59.0372 0 0 64 1027.85 587)">
      <path id="svg_72" fill-rule="nonzero" fill="rgb(90,90,90)" d="m0.03576,-0.2563c0,-0.038 0.006,-0.074 0.017,-0.107c0.011,-0.033 0.027,-0.061 0.048,-0.085c0.021,-0.024 0.047,-0.043 0.079,-0.057c0.031,-0.013 0.066,-0.02 0.106,-0.02c0.04,0 0.075,0.007 0.107,0.02c0.031,0.014 0.057,0.033 0.079,0.057c0.021,0.024 0.037,0.052 0.048,0.085c0.011,0.033 0.017,0.069 0.017,0.107l0,0.01c0,0.039 -0.006,0.075 -0.017,0.107c-0.011,0.033 -0.027,0.061 -0.048,0.085c-0.022,0.024 -0.048,0.043 -0.079,0.057c-0.031,0.013 -0.066,0.02 -0.106,0.02c-0.04,0 -0.076,-0.007 -0.107,-0.02c-0.031,-0.014 -0.057,-0.033 -0.079,-0.057c-0.021,-0.024 -0.037,-0.052 -0.048,-0.085c-0.011,-0.032 -0.017,-0.068 -0.017,-0.107l0,-0.01zm0.141,0.01c0,0.022 0.002,0.042 0.006,0.061c0.004,0.019 0.01,0.035 0.019,0.049c0.009,0.014 0.02,0.025 0.034,0.033c0.014,0.008 0.031,0.012 0.051,0.012c0.019,0 0.036,-0.004 0.05,-0.012c0.014,-0.008 0.025,-0.019 0.034,-0.033c0.008,-0.014 0.015,-0.03 0.019,-0.049c0.004,-0.019 0.006,-0.039 0.006,-0.061l0,-0.01c0,-0.021 -0.002,-0.041 -0.006,-0.059c-0.004,-0.019 -0.011,-0.036 -0.019,-0.05c-0.009,-0.014 -0.02,-0.025 -0.034,-0.033c-0.014,-0.009 -0.031,-0.013 -0.051,-0.013c-0.02,0 -0.036,0.004 -0.05,0.013c-0.014,0.008 -0.025,0.019 -0.034,0.033c-0.009,0.014 -0.015,0.031 -0.019,0.05c-0.004,0.018 -0.006,0.038 -0.006,0.059l0,0.01z"/>
     </g>
     <g id="svg_73" transform="matrix(59.0372 0 0 64 1061.23 587)">
      <path id="svg_74" fill-rule="nonzero" fill="rgb(90,90,90)" d="m0.09676,0.0127l0,-0.425l-0.079,0l0,-0.103l0.079,0l0,-0.046c0,-0.03 0.004,-0.057 0.013,-0.08c0.009,-0.023 0.022,-0.042 0.039,-0.058c0.017,-0.016 0.037,-0.028 0.061,-0.036c0.024,-0.008 0.051,-0.012 0.081,-0.012c0.012,0 0.025,0.001 0.036,0.003c0.012,0.002 0.024,0.004 0.035,0.007l-0.001,0.109c-0.012,-0.003 -0.026,-0.005 -0.043,-0.005c-0.025,0 -0.045,0.007 -0.059,0.019c-0.014,0.012 -0.021,0.03 -0.021,0.053l0,0.046l0.105,0l0,0.103l-0.105,0l0,0.425l-0.141,0z"/>
     </g>
     <g id="svg_75" transform="matrix(59.0372 0 0 64 1082.39 587)">
      <path id="svg_76" fill-rule="nonzero" fill="rgb(90,90,90)" d="m0.09176,0.0127l0,-0.425l-0.078,0l0,-0.103l0.078,0l0,-0.022c0,-0.034 0.006,-0.064 0.016,-0.09c0.01,-0.027 0.026,-0.049 0.045,-0.066c0.02,-0.018 0.045,-0.031 0.073,-0.041c0.029,-0.009 0.061,-0.013 0.098,-0.013c0.027,0 0.054,0.002 0.08,0.008c0.026,0.005 0.052,0.012 0.08,0.021l-0.021,0.116c-0.008,-0.002 -0.017,-0.005 -0.027,-0.008c-0.009,-0.002 -0.019,-0.005 -0.03,-0.007c-0.01,-0.002 -0.022,-0.004 -0.034,-0.005c-0.012,-0.002 -0.025,-0.002 -0.039,-0.002c-0.033,0 -0.058,0.007 -0.074,0.022c-0.017,0.014 -0.025,0.036 -0.025,0.065l0,0.022l0.104,0l0,0.103l-0.104,0l0,0.425l-0.142,0zm0.458,0l-0.142,0l0,-0.528l0.142,0l0,0.528z"/>
     </g>
     <g id="svg_77" transform="matrix(59.0372 0 0 64 1118.3 587)">
      <path id="svg_78" fill-rule="nonzero" fill="rgb(90,90,90)" d="m0.27776,-0.0913c0.013,0 0.025,-0.002 0.036,-0.006c0.01,-0.003 0.02,-0.009 0.027,-0.015c0.008,-0.007 0.014,-0.016 0.019,-0.025c0.004,-0.01 0.006,-0.021 0.007,-0.033l0.132,0c0,0.028 -0.006,0.054 -0.017,0.078c-0.012,0.023 -0.027,0.044 -0.047,0.061c-0.019,0.017 -0.042,0.03 -0.069,0.04c-0.026,0.009 -0.055,0.014 -0.086,0.014c-0.041,0 -0.076,-0.007 -0.107,-0.021c-0.031,-0.014 -0.056,-0.033 -0.076,-0.057c-0.02,-0.024 -0.036,-0.052 -0.046,-0.084c-0.01,-0.032 -0.015,-0.067 -0.015,-0.105l0,-0.014c0,-0.037 0.005,-0.072 0.015,-0.104c0.01,-0.033 0.026,-0.061 0.046,-0.085c0.02,-0.025 0.045,-0.043 0.076,-0.057c0.03,-0.014 0.066,-0.021 0.106,-0.021c0.033,0 0.063,0.005 0.09,0.014c0.026,0.01 0.049,0.024 0.069,0.042c0.019,0.017 0.034,0.039 0.045,0.065c0.01,0.025 0.016,0.054 0.016,0.085l-0.132,0c-0.001,-0.012 -0.003,-0.024 -0.007,-0.035c-0.004,-0.012 -0.01,-0.021 -0.017,-0.03c-0.008,-0.008 -0.017,-0.015 -0.028,-0.02c-0.011,-0.004 -0.024,-0.007 -0.038,-0.007c-0.021,0 -0.037,0.004 -0.05,0.013c-0.013,0.008 -0.024,0.02 -0.031,0.034c-0.007,0.014 -0.012,0.03 -0.015,0.049c-0.002,0.018 -0.004,0.038 -0.004,0.057l0,0.014c0,0.02 0.002,0.04 0.004,0.058c0.003,0.019 0.008,0.035 0.015,0.049c0.007,0.014 0.018,0.025 0.031,0.034c0.013,0.008 0.03,0.012 0.051,0.012z"/>
     </g>
     <g id="svg_79" transform="matrix(59.0372 0 0 64 1149.09 587)">
      <path id="svg_80" fill-rule="nonzero" fill="rgb(90,90,90)" d="m0.30076,0.0227c-0.041,0 -0.077,-0.007 -0.11,-0.02c-0.032,-0.014 -0.06,-0.032 -0.082,-0.055c-0.023,-0.023 -0.04,-0.05 -0.052,-0.081c-0.012,-0.031 -0.018,-0.065 -0.018,-0.1l0,-0.019c0,-0.04 0.006,-0.077 0.017,-0.11c0.012,-0.034 0.028,-0.062 0.05,-0.086c0.021,-0.025 0.047,-0.043 0.077,-0.057c0.031,-0.013 0.065,-0.02 0.103,-0.02c0.038,0 0.071,0.006 0.1,0.019c0.029,0.012 0.054,0.03 0.073,0.052c0.02,0.023 0.035,0.05 0.045,0.082c0.01,0.032 0.015,0.068 0.015,0.107l0,0.06l-0.337,0c0.003,0.017 0.007,0.033 0.014,0.047c0.007,0.014 0.016,0.026 0.027,0.036c0.011,0.009 0.024,0.017 0.038,0.023c0.015,0.005 0.031,0.008 0.05,0.008c0.025,0 0.049,-0.005 0.071,-0.014c0.022,-0.01 0.04,-0.025 0.056,-0.045l0.069,0.078c-0.008,0.012 -0.019,0.023 -0.031,0.035c-0.013,0.011 -0.028,0.021 -0.045,0.03c-0.017,0.009 -0.037,0.016 -0.059,0.022c-0.021,0.005 -0.045,0.008 -0.071,0.008zm-0.016,-0.434c-0.015,0 -0.028,0.003 -0.04,0.008c-0.012,0.006 -0.022,0.013 -0.03,0.023c-0.008,0.009 -0.015,0.021 -0.02,0.034c-0.005,0.013 -0.009,0.028 -0.011,0.045l0.196,0l0,-0.012c0,-0.014 -0.002,-0.027 -0.006,-0.039c-0.004,-0.012 -0.01,-0.022 -0.017,-0.031c-0.008,-0.009 -0.018,-0.016 -0.03,-0.021c-0.011,-0.004 -0.025,-0.007 -0.042,-0.007z"/>
     </g>
    </g>
   </g>
  </g>
  <text font-weight="bold" xml:space="preserve" text-anchor="start" font-family="'Sansita Swashed'" font-size="150" id="svg_81" y="352" x="1055" stroke-width="0" stroke="#000" fill="#007f7f">Nino</text>
  <g stroke="null">
   <metadata stroke="null" fill="#007f7f">Svg Vector Icons : http://www.onlinewebfonts.com/icon</metadata>
   <g stroke="null">
    <g stroke="null" transform="translate(0 511) scale(0.1 -0.1)">
     <path stroke="null" fill="#007f7f" d="m1399.78889,2400.3136l0,-425.90828l357.6871,0c196.84769,0 357.6871,0.35408 357.6871,1.07763c0,0.72355 -8.67244,20.49027 -19.07194,44.21342c-63.28839,144.12468 -157.36673,299.39508 -252.76357,416.56373c-90.60565,111.78052 -206.37437,224.99275 -311.72502,304.42912c-55.93446,42.05817 -120.96847,85.54805 -127.89528,85.54805c-2.17275,0 -3.91838,-183.67352 -3.91838,-425.92367z"/>
     <path stroke="null" fill="#007f7f" d="m1286.19292,2416.84745c-164.31211,-91.29025 -266.63576,-239.01727 -279.20801,-403.63222l-3.027,-38.8099l159.11236,0l158.68523,0l0,230.0268c0,126.5132 -0.87282,230.0268 -1.72706,230.0268c-0.87282,0 -16.04494,-7.89745 -33.83552,-17.61148z"/>
     <path stroke="null" fill="#007f7f" d="m677.46931,1904.66758c-26.44444,-9.69863 -34.68976,-30.91245 -20.81757,-53.55797c3.89981,-6.11167 55.48876,-71.16945 114.46879,-144.49415c110.56897,-137.30485 125.29541,-152.3916 167.7848,-171.80425c47.68914,-21.21382 21.67182,-20.49027 621.29587,-20.49027c599.62405,0 573.60673,-0.72355 621.29587,20.49027c11.71801,5.38813 30.34426,16.17977 41.18945,24.07723c26.46301,19.41265 241.93695,287.17173 246.26388,306.2303c3.89981,17.2574 -4.32693,29.83482 -24.27169,38.10175c-14.31788,6.11167 -65.46114,6.46575 -884.47751,6.46575c-722.74671,-0.33868 -871.45956,-1.04684 -882.73188,-5.01865z"/>
    </g>
   </g>
  </g>
 </g>
</svg>